# xmcd
#
# Track frame offsets: 
#        150
#        21478
#        42411
#        67551
#        84175
#        104649
#        125359
#        148685
#        171150
#        190800
#        207608
#        231424
#        251385
#        272085
#        291350
#        311594
#
# Disc length: 4405 seconds
#
# Revision: 0
# Processed by: cddbd v1.5.2PL0 Copyright (c) Steve Scherf et al.
# Submitted via: ExactAudioCopyFreeDBPlugin 1.0
#
DISCID=ed113310
DTITLE=群星 - 试音宝典40号
DYEAR=2016
DGENRE=Acid
TTITLE0=一生一世爱能几
TTITLE1=最痛的人
TTITLE2=你的每一次呼吸
TTITLE3=春夏秋冬
TTITLE4=这一生回忆有你就足够
TTITLE5=你是我最冷的情人
TTITLE6=为爱痴狂
TTITLE7=说好见面
TTITLE8=亲爱的你怎么不在我身边
TTITLE9=心不设防
TTITLE10=风声鹤唳
TTITLE11=人约黄昏后
TTITLE12=我真的好难过
TTITLE13=爱得忘了自己
TTITLE14=那一天
TTITLE15=时间煮雨
EXTD=
EXTT0=
EXTT1=
EXTT2=
EXTT3=
EXTT4=
EXTT5=
EXTT6=
EXTT7=
EXTT8=
EXTT9=
EXTT10=
EXTT11=
EXTT12=
EXTT13=
EXTT14=
EXTT15=
PLAYORDER=
